<?xml version="1.0" encoding="UTF-8"?>
<svg xmlns="http://www.w3.org/2000/svg" xmlns:xlink="http://www.w3.org/1999/xlink" width="32px" height="32px" viewBox="0 0 32 32" version="1.1">
<g id="surface1">
<path style=" stroke:none;fill-rule:nonzero;fill:rgb(0%,0%,0%);fill-opacity:1;" d="M 12.65625 0.0390625 C 12.519531 0.0507812 12.082031 0.09375 11.6875 0.125 C 7.851562 0.46875 4.488281 1.738281 2.9375 3.425781 C 1.613281 4.863281 1.625 6.429688 2.96875 7.863281 C 4.574219 9.574219 7.742188 10.789062 11.6875 11.199219 C 12.699219 11.304688 15.550781 11.304688 16.5625 11.199219 C 21.917969 10.636719 25.835938 8.554688 26.269531 6.042969 C 26.59375 4.125 24.632812 2.1875 21.210938 1.070312 C 19.773438 0.59375 18.4375 0.320312 16.65625 0.125 C 16.019531 0.0546875 13.113281 -0.0078125 12.65625 0.0390625 Z M 15.625 2.960938 C 17.105469 3.257812 18.167969 3.90625 18.605469 4.792969 C 18.855469 5.3125 18.855469 5.9375 18.605469 6.457031 C 18.257812 7.164062 17.507812 7.726562 16.460938 8.070312 C 15.6875 8.320312 15.125 8.398438 14.125 8.398438 C 13.125 8.398438 12.5625 8.320312 11.789062 8.070312 C 10.742188 7.726562 9.992188 7.164062 9.644531 6.457031 C 9.394531 5.9375 9.394531 5.3125 9.644531 4.792969 C 9.992188 4.085938 10.742188 3.523438 11.800781 3.179688 C 12.25 3.03125 12.5625 2.96875 13.40625 2.851562 C 13.761719 2.800781 15.15625 2.867188 15.625 2.960938 Z M 13.085938 4.773438 C 12.292969 4.925781 11.71875 5.167969 11.445312 5.460938 L 11.292969 5.625 L 11.445312 5.789062 C 11.648438 6.011719 12.105469 6.230469 12.675781 6.386719 C 13.367188 6.582031 14.882812 6.582031 15.574219 6.386719 C 16.144531 6.230469 16.601562 6.011719 16.804688 5.789062 L 16.957031 5.625 L 16.804688 5.460938 C 16.601562 5.238281 16.136719 5.011719 15.574219 4.867188 C 14.949219 4.699219 13.707031 4.65625 13.085938 4.773438 Z M 4.632812 11.542969 C 4.742188 11.710938 5.023438 12.023438 5.25 12.25 C 6.601562 13.570312 8.925781 14.523438 11.75 14.917969 C 12.84375 15.070312 15.40625 15.070312 16.5 14.917969 C 19.324219 14.523438 21.648438 13.570312 23 12.25 C 23.4375 11.824219 23.867188 11.25 23.75 11.25 C 23.710938 11.25 23.542969 11.320312 23.382812 11.40625 C 22.695312 11.75 21.195312 12.257812 20.050781 12.523438 C 15.925781 13.5 10.792969 13.375 7 12.207031 C 6.28125 11.980469 5.242188 11.59375 4.867188 11.40625 C 4.707031 11.320312 4.539062 11.25 4.5 11.25 C 4.460938 11.25 4.523438 11.382812 4.632812 11.542969 Z M 3.9375 13.804688 C 3.9375 13.875 4.007812 14.117188 4.085938 14.335938 C 4.90625 16.511719 7.730469 18.105469 11.757812 18.667969 C 12.835938 18.820312 15.414062 18.820312 16.492188 18.667969 C 20.519531 18.105469 23.34375 16.511719 24.164062 14.335938 C 24.414062 13.667969 24.382812 13.632812 23.894531 14.019531 C 22 15.53125 19.539062 16.445312 16.34375 16.820312 C 15.960938 16.863281 14.980469 16.898438 14.125 16.898438 C 13.269531 16.898438 12.289062 16.863281 11.90625 16.820312 C 8.710938 16.445312 6.25 15.53125 4.363281 14.019531 C 4.007812 13.738281 3.9375 13.699219 3.9375 13.804688 Z M 24.03125 17.664062 C 23.894531 17.78125 23.542969 18.042969 23.25 18.242188 C 21.113281 19.710938 18.269531 20.523438 14.773438 20.664062 L 13.65625 20.707031 L 14.136719 21.199219 C 14.398438 21.46875 14.75 21.875 14.914062 22.09375 C 15.113281 22.367188 15.257812 22.5 15.335938 22.5 C 15.585938 22.5 17.09375 22.3125 17.582031 22.21875 C 20.960938 21.582031 23.554688 19.9375 24.1875 18.023438 C 24.375 17.476562 24.335938 17.398438 24.03125 17.664062 Z M 4.375 18.15625 C 3.84375 18.929688 3.699219 19.664062 3.929688 20.417969 C 4.34375 21.78125 5.730469 22.855469 8.15625 23.6875 C 9.25 24.070312 9.710938 24.292969 10.136719 24.675781 C 10.726562 25.207031 11.023438 25.804688 11.21875 26.84375 C 11.363281 27.648438 11.519531 28.144531 11.832031 28.78125 C 12.65625 30.46875 14.210938 31.644531 16.011719 31.9375 C 16.261719 31.976562 18.894531 32 23.238281 32 L 30.0625 32 L 30.0625 28.1875 L 23.175781 28.175781 L 16.28125 28.15625 L 15.960938 27.988281 C 15.648438 27.824219 15.269531 27.457031 15.117188 27.179688 C 15.082031 27.101562 14.957031 26.667969 14.84375 26.21875 C 14.582031 25.1875 14.25 24.417969 13.730469 23.644531 C 13.210938 22.867188 12.757812 22.363281 12.105469 21.835938 C 11.113281 21.039062 10.105469 20.53125 8.644531 20.101562 C 6.945312 19.59375 5.804688 19.011719 4.9375 18.207031 L 4.570312 17.867188 Z M 24.03125 21.335938 C 22.460938 22.726562 19.792969 23.804688 17.074219 24.164062 C 16.667969 24.21875 16.3125 24.269531 16.269531 24.28125 C 16.21875 24.300781 16.261719 24.488281 16.398438 24.886719 C 16.519531 25.207031 16.644531 25.65625 16.695312 25.886719 L 16.773438 26.3125 L 23.867188 26.3125 L 24.414062 25.992188 C 25.125 25.570312 25.875 24.84375 26.105469 24.335938 C 26.355469 23.804688 26.355469 23.179688 26.101562 22.65625 C 25.898438 22.238281 25.074219 21.375 24.648438 21.144531 L 24.398438 21.007812 Z M 2.324219 22.367188 C 1.726562 23.292969 1.84375 24.179688 2.6875 25.082031 C 3.570312 26.023438 5.074219 26.78125 7.195312 27.335938 C 8.148438 27.585938 9.429688 27.84375 9.480469 27.789062 C 9.550781 27.726562 9.199219 26.4375 9.0625 26.25 C 8.863281 25.976562 8.507812 25.789062 7.46875 25.4375 C 6.292969 25.039062 5.523438 24.675781 4.71875 24.144531 C 4.039062 23.6875 3.148438 22.851562 2.792969 22.320312 L 2.570312 21.980469 Z M 2.324219 22.367188 "/>
</g>
</svg>
