<?xml version="1.0" encoding="UTF-8"?>
<svg xmlns="http://www.w3.org/2000/svg" xmlns:xlink="http://www.w3.org/1999/xlink" width="32px" height="32px" viewBox="0 0 32 32" version="1.1">
<g id="surface1">
<path style=" stroke:none;fill-rule:nonzero;fill:currentColor;fill-opacity:1;" d="M 0 0.9375 L 0 1.875 L 4.09375 1.875 L 4.09375 2.273438 C 4.09375 2.617188 4.117188 2.710938 4.28125 2.945312 C 4.386719 3.085938 4.59375 3.273438 4.742188 3.355469 L 5.019531 3.5 L 26.980469 3.5 L 27.257812 3.355469 C 27.40625 3.273438 27.617188 3.085938 27.71875 2.945312 C 27.882812 2.710938 27.90625 2.617188 27.90625 2.273438 L 27.90625 1.875 L 32 1.875 L 32 0 L 0 0 Z M 4.742188 5.144531 C 3.980469 5.550781 3.832031 6.601562 4.457031 7.195312 C 4.53125 7.269531 4.707031 7.382812 4.84375 7.445312 C 5.082031 7.554688 5.507812 7.5625 16.007812 7.5625 L 26.925781 7.5625 L 27.257812 7.386719 C 27.925781 7.039062 28.144531 6.164062 27.710938 5.550781 C 27.613281 5.40625 27.40625 5.226562 27.257812 5.144531 L 26.980469 5 L 5.019531 5 Z M 5.09375 9.054688 C 4.0625 9.3125 3.71875 10.476562 4.457031 11.238281 C 4.855469 11.648438 4.167969 11.625 16 11.625 C 27.832031 11.625 27.144531 11.648438 27.542969 11.238281 C 28.179688 10.582031 28.023438 9.601562 27.21875 9.167969 L 26.96875 9.03125 L 16.125 9.019531 C 10.164062 9.019531 5.199219 9.03125 5.09375 9.054688 Z M 4.914062 13.15625 C 3.867188 13.523438 3.769531 15 4.761719 15.507812 C 4.988281 15.617188 5.304688 15.625 16.011719 15.625 L 27.03125 15.625 L 27.28125 15.480469 C 27.824219 15.175781 28.070312 14.492188 27.851562 13.90625 C 27.71875 13.574219 27.34375 13.21875 27.019531 13.132812 C 26.855469 13.082031 23.40625 13.0625 15.96875 13.0625 C 6.949219 13.070312 5.117188 13.082031 4.914062 13.15625 Z M 4.917969 17.1875 C 4.425781 17.335938 4.0625 17.863281 4.0625 18.425781 L 4.0625 18.75 L 0 18.75 L 0 20.625 L 9.085938 20.625 C 17.3125 20.625 18.175781 20.632812 18.210938 20.726562 C 18.230469 20.78125 18.25 23.105469 18.25 25.894531 C 18.25 30.699219 18.257812 30.980469 18.367188 31.21875 C 18.582031 31.679688 19.0625 32 19.550781 32 C 19.898438 32 20.386719 31.730469 20.601562 31.425781 L 20.78125 31.167969 L 20.800781 25.664062 C 20.8125 21.84375 20.792969 20.054688 20.742188 19.824219 C 20.5625 18.929688 19.832031 17.976562 19.007812 17.539062 C 18.195312 17.113281 18.46875 17.125 11.4375 17.132812 C 7.949219 17.132812 5.011719 17.164062 4.917969 17.1875 Z M 21.675781 17.4375 C 22.21875 18.15625 22.601562 19.179688 22.667969 20.105469 L 22.707031 20.625 L 32 20.625 L 32 18.75 L 27.9375 18.75 L 27.9375 18.417969 C 27.9375 17.980469 27.730469 17.59375 27.382812 17.34375 L 27.113281 17.15625 L 24.273438 17.136719 L 21.4375 17.117188 Z M 21.675781 17.4375 "/>
</g>
</svg>
