<?xml version="1.0" encoding="UTF-8"?>
<svg xmlns="http://www.w3.org/2000/svg" xmlns:xlink="http://www.w3.org/1999/xlink" width="32px" height="32px" viewBox="0 0 32 32" version="1.1">
<g id="surface1">
<path style=" stroke:none;fill-rule:nonzero;fill:currentColor;fill-opacity:1;" d="M 0.4375 2.550781 C 0.0625 2.75 0 2.960938 0 4.050781 C 0 5.085938 0.0390625 5.25 0.351562 5.492188 L 0.519531 5.625 L 31.480469 5.625 L 31.648438 5.492188 C 31.960938 5.25 32 5.085938 32 4.050781 C 32 2.960938 31.9375 2.75 31.5625 2.550781 C 31.355469 2.445312 30.761719 2.4375 16 2.4375 C 1.238281 2.4375 0.644531 2.445312 0.4375 2.550781 Z M 3.632812 7.355469 C 3.351562 7.5 3.164062 7.863281 3.210938 8.15625 C 3.269531 8.449219 3.523438 8.730469 3.800781 8.8125 C 3.949219 8.851562 6.542969 8.875 11.332031 8.875 C 17.980469 8.875 18.648438 8.882812 18.8125 8.976562 C 19.148438 9.175781 19.1875 9.332031 19.1875 10.417969 C 19.1875 11.539062 19.242188 11.742188 19.632812 11.949219 C 19.898438 12.09375 20.101562 12.09375 20.367188 11.949219 C 20.75 11.742188 20.8125 11.539062 20.8125 10.457031 C 20.8125 9.929688 20.78125 9.355469 20.742188 9.175781 C 20.582031 8.417969 20.101562 7.820312 19.386719 7.480469 L 18.96875 7.28125 L 11.40625 7.261719 C 4.292969 7.25 3.832031 7.257812 3.632812 7.355469 Z M 22.835938 7.351562 C 22.460938 7.53125 22.292969 8.117188 22.523438 8.46875 C 22.773438 8.84375 22.738281 8.84375 25.375 8.863281 C 26.699219 8.875 27.90625 8.863281 28.054688 8.84375 C 28.625 8.757812 28.949219 8.179688 28.707031 7.707031 C 28.476562 7.25 28.480469 7.25 25.59375 7.25 C 23.4375 7.25 23 7.269531 22.835938 7.351562 Z M 3.632812 10.550781 C 3.394531 10.675781 3.1875 11.007812 3.1875 11.25 C 3.1875 11.492188 3.394531 11.824219 3.632812 11.949219 C 3.832031 12.054688 4.179688 12.0625 10.800781 12.0625 C 17.40625 12.0625 17.761719 12.054688 17.710938 11.949219 C 17.6875 11.894531 17.648438 11.53125 17.632812 11.15625 L 17.59375 10.46875 L 10.71875 10.449219 C 4.15625 10.4375 3.832031 10.445312 3.632812 10.550781 Z M 22.40625 10.511719 C 22.394531 10.554688 22.367188 10.875 22.355469 11.21875 C 22.34375 11.5625 22.3125 11.894531 22.289062 11.957031 C 22.238281 12.0625 22.382812 12.0625 25.273438 12.050781 L 28.3125 12.03125 L 28.539062 11.804688 C 28.9375 11.40625 28.863281 10.8125 28.367188 10.550781 C 28.175781 10.445312 27.949219 10.4375 25.292969 10.4375 C 23.0625 10.4375 22.425781 10.457031 22.40625 10.511719 Z M 3.769531 13.695312 C 3.519531 13.769531 3.269531 14.0625 3.210938 14.34375 C 3.164062 14.636719 3.351562 15 3.632812 15.136719 C 3.832031 15.242188 4.550781 15.25 16 15.25 C 27.449219 15.25 28.167969 15.242188 28.367188 15.136719 C 28.648438 15 28.835938 14.636719 28.789062 14.34375 C 28.730469 14.050781 28.476562 13.769531 28.199219 13.6875 C 27.898438 13.605469 4.054688 13.613281 3.769531 13.695312 Z M 3.46875 17.082031 C 3.085938 17.460938 3.136719 18.042969 3.574219 18.3125 C 3.78125 18.4375 3.855469 18.4375 16 18.4375 C 28.144531 18.4375 28.21875 18.4375 28.425781 18.3125 C 28.863281 18.042969 28.914062 17.460938 28.53125 17.082031 L 28.324219 16.875 L 3.675781 16.875 Z M 3.574219 20.1875 C 3.136719 20.457031 3.085938 21.039062 3.46875 21.417969 L 3.675781 21.625 L 28.324219 21.625 L 28.53125 21.417969 C 28.914062 21.039062 28.863281 20.457031 28.425781 20.1875 C 28.21875 20.0625 28.144531 20.0625 16 20.0625 C 3.855469 20.0625 3.78125 20.0625 3.574219 20.1875 Z M 3.632812 23.363281 C 3.351562 23.5 3.164062 23.863281 3.210938 24.15625 C 3.269531 24.449219 3.523438 24.730469 3.800781 24.8125 C 4.117188 24.898438 27.882812 24.898438 28.199219 24.8125 C 28.476562 24.730469 28.730469 24.449219 28.789062 24.15625 C 28.835938 23.863281 28.648438 23.5 28.367188 23.363281 C 28.167969 23.257812 27.449219 23.25 16 23.25 C 4.550781 23.25 3.832031 23.257812 3.632812 23.363281 Z M 0.4375 26.550781 C 0.0625 26.75 0 26.960938 0 28.050781 C 0 29.085938 0.0390625 29.25 0.351562 29.492188 L 0.519531 29.625 L 31.480469 29.625 L 31.648438 29.492188 C 31.960938 29.25 32 29.085938 32 28.050781 C 32 26.960938 31.9375 26.75 31.5625 26.550781 C 31.355469 26.445312 30.761719 26.4375 16 26.4375 C 1.238281 26.4375 0.644531 26.445312 0.4375 26.550781 Z M 0.4375 26.550781 "/>
</g>
</svg>
